<?xml version="1.0" encoding="utf-8"?>
<!-- Generator: Adobe Illustrator 27.1.0, SVG Export Plug-In . SVG Version: 6.00 Build 0)  -->
<svg version="1.1" xmlns="http://www.w3.org/2000/svg" xmlns:xlink="http://www.w3.org/1999/xlink" x="0px" y="0px"
	 viewBox="0 0 600 600" style="enable-background:new 0 0 600 600;" xml:space="preserve">
<style type="text/css">
	.st0{fill:#FF0001;}
	.st1{fill:#FCD806;}
	.st2{fill:#0103F3;}
	.st3{font-family:'Arial-Black';}
	.st4{font-size:33.1253px;}
	.st5{font-size:17.4049px;}
</style>
<g id="Capa_1">
</g>
<g id="Capa_2">
	<g>
		<g>
			<path class="st0" d="M387.15,337.41H326.3v-121.7h60.85c33.61,0,60.85,27.24,60.85,60.85v0
				C448,310.16,420.76,337.41,387.15,337.41z"/>
			<rect x="281.9" y="243.53" class="st0" width="73.46" height="20.01"/>
			<rect x="281.9" y="289.3" class="st0" width="73.46" height="20.01"/>
			<rect x="168.43" y="217.49" class="st0" width="18.36" height="74.55"/>
			<rect x="231.74" y="217.49" class="st0" width="18.36" height="74.55"/>
			<polygon class="st0" points="228.45,316.71 182.95,349.6 233.39,349.6 233.39,312.05 			"/>
			<g>
				<path class="st1" d="M454.03,408.68H208.17c-69.06,0-125.25-56.19-125.25-125.25s56.19-125.25,125.25-125.25
					c30.71,0,60.26,11.23,83.19,31.61l-6.74,7.59c-21.07-18.73-48.22-29.05-76.44-29.05c-63.47,0-115.1,51.63-115.1,115.1
					s51.63,115.1,115.1,115.1h245.86V408.68z"/>
			</g>
			<g>
				<path class="st1" d="M448,408.68v-10.15c32.49,0,58.92-26.43,58.92-58.92s-26.43-58.92-58.92-58.92v-10.15
					c38.09,0,69.08,30.99,69.08,69.08S486.09,408.68,448,408.68z"/>
			</g>
			<polygon class="st1" points="274.92,214.82 295.82,193.92 287.06,186.14 258.61,214.82 			"/>
			<g>
				<path class="st1" d="M420.05,294.82c-10.07,0-18.26-8.19-18.26-18.26c0-10.07,8.19-18.26,18.26-18.26
					c10.07,0,18.26,8.19,18.26,18.26C438.31,286.63,430.12,294.82,420.05,294.82z M420.05,267c-5.27,0-9.56,4.29-9.56,9.56
					c0,5.27,4.29,9.56,9.56,9.56s9.56-4.29,9.56-9.56C429.61,271.29,425.32,267,420.05,267z"/>
			</g>
			<text transform="matrix(1 0 0 1 285.2643 379.0751)" class="st2 st3 st4">SEDEELEC</text>
			<g>
				<path class="st2" d="M289.95,336.78c-17.58,26.48-47.04,42.29-78.79,42.29c-52.1,0-94.49-42.4-94.49-94.51
					c0-52.1,42.4-94.49,94.49-94.49c23.79,0,46.3,8.76,63.76,24.74h-16.32c-13.88-9.49-30.28-14.59-47.44-14.59
					c-46.5,0-84.34,37.84-84.34,84.34c0,46.51,37.84,84.36,84.34,84.36c28.34,0,54.64-14.11,70.33-37.77L289.95,336.78z"/>
			</g>
			<polygon class="st1" points="95.24,415.93 245.45,306.84 212.28,270.39 250.11,238.87 250.11,217.49 168.43,272.86 
				203.65,308.08 			"/>
		</g>
		<text transform="matrix(1 0 0 1 152.5498 436.4891)" class="st2 st3 st5">SERVICIO DE ELECTROTECNIA</text>
	</g>
</g>
</svg>
